Mertz-Heavy-IN.ufo
<glyph name="quotedbl" format="1">
  <advance width="709"/>
  <unicode hex="0022"/>
  <outline>
    <contour>
      <point x="481" y="895" type="line"/>
      <point x="549" y="895" type="line"/>
      <point x="649" y="1536" type="line"/>
      <point x="381" y="1536" type="line"/>
    </contour>
    <contour>
      <point x="165" y="895" type="line"/>
      <point x="233" y="895" type="line"/>
      <point x="333" y="1536" type="line"/>
      <point x="65" y="1536" type="line"/>
    </contour>
  </outline>
</glyph>
<glyph name="numbersign" format="1">
  <advance width="1174"/>
  <unicode hex="0023"/>
  <outline>
    <contour>
      <point x="117" y="0" type="line"/>
      <point x="285" y="0" type="line"/>
      <point x="615" y="1241" type="line"/>
      <point x="445" y="1241" type="line"/>
    </contour>
    <contour>
      <point x="96" y="390" type="line"/>
      <point x="1046" y="390" type="line"/>
      <point x="1046" y="515" type="line"/>
      <point x="96" y="515" type="line"/>
    </contour>
    <contour>
      <point x="146" y="699" type="line"/>
      <point x="1096" y="699" type="line"/>
      <point x="1096" y="824" type="line"/>
      <point x="146" y="824" type="line"/>
    </contour>
    <contour>
      <point x="574" y="0" type="line"/>
      <point x="742" y="0" type="line"/>
      <point x="1072" y="1241" type="line"/>
      <point x="902" y="1241" type="line"/>
    </contour>
  </outline>
</glyph>
<glyph name="dollar" format="1">
  <advance width="956"/>
  <unicode hex="0024"/>
  <outline>
    <contour>
      <point x="295" y="-168" type="line"/>
      <point x="411" y="-168" type="line"/>
      <point x="701" y="1381" type="line"/>
      <point x="585" y="1381" type="line"/>
    </contour>
    <contour>
      <point x="556" y="-33" type="curve" smooth="yes"/>
      <point x="746" y="-33"/>
      <point x="911" y="81"/>
      <point x="911" y="320" type="curve" smooth="yes"/>
      <point x="911" y="449"/>
      <point x="865" y="567"/>
      <point x="680" y="672" type="curve" smooth="yes"/>
      <point x="436" y="811" type="line" smooth="yes"/>
      <point x="373" y="847"/>
      <point x="355" y="901"/>
      <point x="355" y="932" type="curve" smooth="yes"/>
      <point x="355" y="973"/>
      <point x="383" y="1043"/>
      <point x="486" y="1043" type="curve" smooth="yes"/>
      <point x="612" y="1043"/>
      <point x="855" y="959"/>
      <point x="855" y="959" type="curve"/>
      <point x="855" y="1196" type="line" smooth="yes"/>
      <point x="855" y="1202"/>
      <point x="674" y="1277"/>
      <point x="475" y="1277" type="curve" smooth="yes"/>
      <point x="226" y="1277"/>
      <point x="60" y="1111"/>
      <point x="60" y="928" type="curve" smooth="yes"/>
      <point x="60" y="822"/>
      <point x="107" y="701"/>
      <point x="248" y="615" type="curve" smooth="yes"/>
      <point x="533" y="442" type="line" smooth="yes"/>
      <point x="627" y="385"/>
      <point x="624" y="348"/>
      <point x="624" y="316" type="curve" smooth="yes"/>
      <point x="624" y="254"/>
      <point x="590" y="195"/>
      <point x="512" y="195" type="curve" smooth="yes"/>
      <point x="376" y="195"/>
      <point x="88" y="313"/>
      <point x="87" y="313" type="curve"/>
      <point x="87" y="70" type="line"/>
      <point x="87" y="70"/>
      <point x="307" y="-33"/>
    </contour>
  </outline>
</glyph>
<glyph name="percent" format="1">
  <advance width="1572"/>
  <unicode hex="0025"/>
  <outline>
    <contour>
      <point x="293" y="0" type="line"/>
      <point x="554" y="0" type="line"/>
      <point x="1271" y="1241" type="line"/>
      <point x="1008" y="1241" type="line"/>
    </contour>
    <component base="o" xScale="0.6" yScale="0.6" xOffset="32" yOffset="700"/>
    <component base="o" xScale="0.6" yScale="0.6" xOffset="862" yOffset="14"/>
  </outline>
</glyph>
<glyph name="ampersand" format="1">
  <advance width="1245"/>
  <unicode hex="0026"/>
  <outline>
    <contour>
      <point x="502" y="-33" type="curve" smooth="yes"/>
      <point x="863" y="-33"/>
      <point x="1128" y="233"/>
      <point x="1208" y="428" type="curve"/>
      <point x="1038" y="565" type="line"/>
      <point x="940" y="366"/>
      <point x="720" y="191"/>
      <point x="539" y="191" type="curve" smooth="yes"/>
      <point x="383" y="191"/>
      <point x="353" y="291"/>
      <point x="353" y="368" type="curve" smooth="yes"/>
      <point x="353" y="420"/>
      <point x="351.522" y="526.304"/>
      <point x="529" y="619" type="curve" smooth="yes"/>
      <point x="821" y="771"/>
      <point x="878" y="870"/>
      <point x="865" y="1029" type="curve" smooth="yes"/>
      <point x="855" y="1152"/>
      <point x="764" y="1272"/>
      <point x="527" y="1272" type="curve" smooth="yes"/>
      <point x="336.567" y="1272"/>
      <point x="113" y="1203"/>
      <point x="113" y="989" type="curve" smooth="yes"/>
      <point x="113" y="908"/>
      <point x="143" y="796"/>
      <point x="296" y="659" type="curve" smooth="yes"/>
      <point x="1075" y="-40" type="line"/>
      <point x="1241" y="119" type="line"/>
      <point x="466" y="814" type="line"/>
      <point x="382" y="895"/>
      <point x="357" y="952"/>
      <point x="357" y="979" type="curve" smooth="yes"/>
      <point x="357" y="1083.06"/>
      <point x="468" y="1094"/>
      <point x="530" y="1094" type="curve" smooth="yes"/>
      <point x="588" y="1094"/>
      <point x="635" y="1049"/>
      <point x="635" y="1001" type="curve" smooth="yes"/>
      <point x="635" y="953"/>
      <point x="630.543" y="914.06"/>
      <point x="450" y="833" type="curve" smooth="yes"/>
      <point x="186" y="715"/>
      <point x="80" y="523"/>
      <point x="80" y="331" type="curve" smooth="yes"/>
      <point x="80" y="166"/>
      <point x="223" y="-33"/>
    </contour>
  </outline>
</glyph>
<glyph name="parenleft" format="1">
  <advance width="586"/>
  <unicode hex="0028"/>
  <outline>
    <contour>
      <point x="140" y="-81.0996" type="line"/>
      <point x="46.0693" y="122.744"/>
      <point x="-0.929294" y="382.634"/>
      <point x="-0.929294" y="642.461" type="curve" smooth="yes"/>
      <point x="-0.929294" y="900.316"/>
      <point x="45.3588" y="1158.11"/>
      <point x="138" y="1361" type="curve"/>
      <point x="432" y="1361" type="line"/>
      <point x="336.967" y="1139.86"/>
      <point x="289.532" y="891.018"/>
      <point x="289.532" y="642.297" type="curve" smooth="yes"/>
      <point x="289.532" y="391.544"/>
      <point x="337.745" y="140.911"/>
      <point x="434" y="-81.0996" type="curve"/>
    </contour>
  </outline>
</glyph>
<glyph name="parenright" format="1">
  <advance width="586"/>
  <unicode hex="0029"/>
  <outline>
    <contour>
      <point x="1" y="-81" type="line"/>
      <point x="96" y="140"/>
      <point x="144" y="389"/>
      <point x="144" y="638" type="curve" smooth="yes"/>
      <point x="144" y="888"/>
      <point x="95" y="1139"/>
      <point x="-1" y="1361" type="curve"/>
      <point x="293" y="1361" type="line"/>
      <point x="387" y="1157"/>
      <point x="434" y="897"/>
      <point x="434" y="637" type="curve" smooth="yes"/>
      <point x="434" y="380"/>
      <point x="388" y="122"/>
      <point x="295" y="-81" type="curve"/>
    </contour>
  </outline>
</glyph>
<glyph name="asterisk" format="1">
  <advance width="1307"/>
  <unicode hex="002A"/>
  <outline>
    <contour>
      <point x="328" y="467" type="line"/>
      <point x="541.5" y="747.343" type="line"/>
      <point x="755" y="467" type="line"/>
      <point x="880" y="575" type="line"/>
      <point x="642" y="818" type="line"/>
      <point x="957" y="923" type="line"/>
      <point x="895" y="1068" type="line"/>
      <point x="602" y="929" type="line"/>
      <point x="626" y="1270" type="line"/>
      <point x="457" y="1270" type="line"/>
      <point x="481" y="929" type="line"/>
      <point x="188" y="1068" type="line"/>
      <point x="126" y="923" type="line"/>
      <point x="441" y="818" type="line"/>
      <point x="203" y="575" type="line"/>
    </contour>
  </outline>
</glyph>
<glyph name="hyphen" format="1">
  <advance width="1009"/>
  <unicode hex="002D"/>
  <outline>
    <contour>
      <point x="188" y="441" type="line"/>
      <point x="875" y="441" type="line"/>
      <point x="875" y="689" type="line"/>
      <point x="188" y="689" type="line"/>
    </contour>
  </outline>
</glyph>
<glyph name="slash" format="1">
  <advance width="0"/>
  <unicode hex="002F"/>
  <outline>
    <contour>
      <point x="137" y="0" type="line"/>
      <point x="398" y="0" type="line"/>
      <point x="945" y="1241" type="line"/>
      <point x="682" y="1241" type="line"/>
    </contour>
  </outline>
</glyph>
<glyph name="zero" format="1">
  <advance width="1239"/>
  <unicode hex="0030"/>
  <outline>
    <contour>
      <point x="620" y="226" type="curve" smooth="yes"/>
      <point x="462" y="226"/>
      <point x="345" y="298"/>
      <point x="345" y="629" type="curve" smooth="yes"/>
      <point x="345" y="956"/>
      <point x="462" y="1017"/>
      <point x="620" y="1017" type="curve" smooth="yes"/>
      <point x="779" y="1017"/>
      <point x="896" y="955"/>
      <point x="896" y="629" type="curve" smooth="yes"/>
      <point x="896" y="298"/>
      <point x="779" y="226"/>
    </contour>
    <contour>
      <point x="620" y="-33" type="curve" smooth="yes"/>
      <point x="1023" y="-33"/>
      <point x="1189" y="206"/>
      <point x="1189" y="623" type="curve" smooth="yes"/>
      <point x="1189" y="1062"/>
      <point x="1008" y="1276"/>
      <point x="620" y="1276" type="curve" smooth="yes"/>
      <point x="232" y="1276"/>
      <point x="50" y="1062"/>
      <point x="50" y="623" type="curve" smooth="yes"/>
      <point x="50" y="206"/>
      <point x="217" y="-33"/>
    </contour>
  </outline>
</glyph>
<glyph name="two" format="1">
  <advance width="1004"/>
  <unicode hex="0032"/>
  <outline>
    <contour>
      <point x="4" y="0" type="line"/>
      <point x="871" y="0" type="line"/>
      <point x="871" y="253" type="line"/>
      <point x="525" y="253" type="line"/>
      <point x="698" y="482" type="line" smooth="yes"/>
      <point x="806" y="625"/>
      <point x="880" y="771"/>
      <point x="880" y="898" type="curve" smooth="yes"/>
      <point x="880" y="1111"/>
      <point x="743" y="1276"/>
      <point x="484" y="1276" type="curve" smooth="yes"/>
      <point x="296" y="1276"/>
      <point x="92" y="1138"/>
      <point x="92" y="1138" type="curve"/>
      <point x="187" y="923" type="line"/>
      <point x="187" y="923"/>
      <point x="340" y="1017"/>
      <point x="449" y="1017" type="curve" smooth="yes"/>
      <point x="526" y="1017"/>
      <point x="579" y="974"/>
      <point x="579" y="896" type="curve" smooth="yes"/>
      <point x="579" y="839"/>
      <point x="550" y="763"/>
      <point x="483" y="672" type="curve"/>
    </contour>
  </outline>
</glyph>
<glyph name="four" format="1">
  <advance width="1200"/>
  <unicode hex="0034"/>
  <outline>
    <contour>
      <point x="637" y="0" type="line"/>
      <point x="945" y="0" type="line"/>
      <point x="945" y="235" type="line"/>
      <point x="1135" y="235" type="line"/>
      <point x="1135" y="452" type="line"/>
      <point x="945" y="452" type="line"/>
      <point x="945" y="1274" type="line"/>
      <point x="26" y="235" type="line"/>
      <point x="637" y="235" type="line"/>
    </contour>
    <contour>
      <point x="472" y="452" type="line"/>
      <point x="637" y="677" type="line"/>
      <point x="637" y="452" type="line"/>
    </contour>
  </outline>
</glyph>
<glyph name="seven" format="1">
  <advance width="1007"/>
  <unicode hex="0037"/>
  <outline>
    <contour>
      <point x="179" y="0" type="line"/>
      <point x="505" y="0" type="line"/>
      <point x="887" y="1020" type="line"/>
      <point x="887" y="1241" type="line"/>
      <point x="125" y="1241" type="line"/>
      <point x="125" y="973" type="line"/>
      <point x="556" y="973" type="line"/>
    </contour>
  </outline>
</glyph>
<glyph name="eight" format="1">
  <advance width="1076"/>
  <unicode hex="0038"/>
  <outline>
    <contour>
      <point x="542" y="-33" type="curve" smooth="yes"/>
      <point x="788" y="-33"/>
      <point x="987" y="82"/>
      <point x="987" y="306" type="curve" smooth="yes"/>
      <point x="987" y="460"/>
      <point x="906" y="548"/>
      <point x="776" y="644" type="curve"/>
      <point x="888" y="724"/>
      <point x="964" y="829"/>
      <point x="964" y="940" type="curve" smooth="yes"/>
      <point x="964" y="1166"/>
      <point x="757" y="1278"/>
      <point x="536" y="1278" type="curve" smooth="yes"/>
      <point x="295" y="1278"/>
      <point x="113" y="1128"/>
      <point x="113" y="940" type="curve" smooth="yes"/>
      <point x="113" y="829"/>
      <point x="190" y="718"/>
      <point x="304" y="644" type="curve"/>
      <point x="172" y="557"/>
      <point x="89" y="455"/>
      <point x="89" y="305" type="curve" smooth="yes"/>
      <point x="89" y="81"/>
      <point x="305" y="-33"/>
    </contour>
    <contour>
      <point x="537" y="718" type="curve"/>
      <point x="425" y="750"/>
      <point x="353" y="832"/>
      <point x="353" y="930" type="curve" smooth="yes"/>
      <point x="353" y="1014"/>
      <point x="433" y="1068"/>
      <point x="537" y="1068" type="curve" smooth="yes"/>
      <point x="641" y="1068"/>
      <point x="720" y="1014"/>
      <point x="720" y="930" type="curve" smooth="yes"/>
      <point x="720" y="847"/>
      <point x="655" y="752"/>
    </contour>
    <contour>
      <point x="537" y="177" type="curve" smooth="yes"/>
      <point x="424" y="177"/>
      <point x="339" y="235"/>
      <point x="339" y="342" type="curve" smooth="yes"/>
      <point x="339" y="439"/>
      <point x="398" y="526"/>
      <point x="538" y="580" type="curve"/>
      <point x="660" y="542"/>
      <point x="740" y="435"/>
      <point x="740" y="347" type="curve" smooth="yes"/>
      <point x="740" y="230"/>
      <point x="651" y="177"/>
    </contour>
  </outline>
</glyph>
<glyph name="nine" format="1">
  <advance width="1115"/>
  <unicode hex="0039"/>
  <outline>
    <contour>
      <point x="200" y="0" type="line"/>
      <point x="523" y="0" type="line"/>
      <point x="523" y="0"/>
      <point x="780" y="312"/>
      <point x="857" y="416" type="curve" smooth="yes"/>
      <point x="979" y="579"/>
      <point x="1043" y="695"/>
      <point x="1043" y="859" type="curve" smooth="yes"/>
      <point x="1043" y="1091"/>
      <point x="838" y="1276"/>
      <point x="568" y="1276" type="curve" smooth="yes"/>
      <point x="312" y="1276"/>
      <point x="97" y="1122"/>
      <point x="97" y="861" type="curve" smooth="yes"/>
      <point x="97" y="619"/>
      <point x="288" y="462"/>
      <point x="502" y="462" type="curve" smooth="yes"/>
      <point x="522" y="462"/>
      <point x="551" y="465"/>
      <point x="571" y="468" type="curve"/>
    </contour>
    <contour>
      <point x="568" y="682" type="curve" smooth="yes"/>
      <point x="441" y="682"/>
      <point x="378" y="770"/>
      <point x="378" y="860" type="curve" smooth="yes"/>
      <point x="378" y="951"/>
      <point x="444" y="1043"/>
      <point x="574" y="1043" type="curve" smooth="yes"/>
      <point x="705" y="1043"/>
      <point x="768" y="956"/>
      <point x="768" y="867" type="curve" smooth="yes"/>
      <point x="768" y="775"/>
      <point x="700" y="682"/>
    </contour>
  </outline>
</glyph>
<glyph name="less" format="1">
  <advance width="1026"/>
  <unicode hex="003C"/>
  <outline>
    <contour>
      <point x="965" y="-74" type="line"/>
      <point x="965" y="236" type="line"/>
      <point x="553" y="425" type="line"/>
      <point x="965" y="617" type="line"/>
      <point x="965" y="924" type="line"/>
      <point x="62" y="425" type="line"/>
    </contour>
  </outline>
</glyph>
<glyph name="equal" format="1">
  <advance width="1259"/>
  <unicode hex="003D"/>
  <outline>
    <contour>
      <point x="219" y="291" type="line"/>
      <point x="994" y="291" type="line"/>
      <point x="994" y="459" type="line"/>
      <point x="219" y="459" type="line"/>
    </contour>
    <contour>
      <point x="219" y="649" type="line"/>
      <point x="994" y="649" type="line"/>
      <point x="994" y="817" type="line"/>
      <point x="219" y="817" type="line"/>
    </contour>
  </outline>
</glyph>
<glyph name="question" format="1">
  <advance width="1094"/>
  <unicode hex="003F"/>
  <outline>
    <contour>
      <point x="329" y="413" type="curve"/>
      <point x="540" y="413" type="line"/>
      <point x="865" y="667"/>
      <point x="952" y="815"/>
      <point x="952" y="949" type="curve" smooth="yes"/>
      <point x="952" y="1144"/>
      <point x="814" y="1276"/>
      <point x="564" y="1276" type="curve" smooth="yes"/>
      <point x="376" y="1276"/>
      <point x="185" y="1148"/>
      <point x="185" y="1148" type="curve"/>
      <point x="280" y="933" type="line"/>
      <point x="280" y="933"/>
      <point x="427" y="1017"/>
      <point x="529" y="1017" type="curve" smooth="yes"/>
      <point x="605.059" y="1017"/>
      <point x="650" y="973.052"/>
      <point x="650" y="895" type="curve" smooth="yes"/>
      <point x="650" y="808"/>
      <point x="599" y="723"/>
    </contour>
    <component base="period" xOffset="156"/>
  </outline>
</glyph>
<glyph name="at" format="1">
  <advance width="1510"/>
  <unicode hex="0040"/>
  <outline>
    <contour>
      <point x="751" y="-114" type="curve" smooth="yes"/>
      <point x="1003" y="-114"/>
      <point x="1179" y="-27"/>
      <point x="1273" y="28" type="curve"/>
      <point x="1235" y="170" type="line"/>
      <point x="1144" y="116"/>
      <point x="965" y="45"/>
      <point x="764" y="45" type="curve" smooth="yes"/>
      <point x="458" y="45"/>
      <point x="220" y="197"/>
      <point x="220" y="540" type="curve" smooth="yes"/>
      <point x="220" y="777"/>
      <point x="368" y="1085"/>
      <point x="814" y="1085" type="curve" smooth="yes"/>
      <point x="1066" y="1085"/>
      <point x="1256" y="913"/>
      <point x="1256" y="624" type="curve" smooth="yes"/>
      <point x="1256" y="404"/>
      <point x="1173" y="342"/>
      <point x="1108" y="342" type="curve" smooth="yes"/>
      <point x="1026" y="342"/>
      <point x="1029" y="448"/>
      <point x="1029" y="521" type="curve" smooth="yes"/>
      <point x="1029" y="949" type="line"/>
      <point x="987" y="953"/>
      <point x="930" y="955"/>
      <point x="894" y="955" type="curve" smooth="yes"/>
      <point x="428" y="955"/>
      <point x="375" y="637"/>
      <point x="381" y="501" type="curve" smooth="yes"/>
      <point x="390" y="306"/>
      <point x="523" y="205"/>
      <point x="649" y="205" type="curve" smooth="yes"/>
      <point x="744" y="205"/>
      <point x="847" y="262"/>
      <point x="897" y="387" type="curve"/>
      <point x="920" y="257"/>
      <point x="1008" y="204"/>
      <point x="1095" y="204" type="curve" smooth="yes"/>
      <point x="1248" y="204"/>
      <point x="1433" y="368"/>
      <point x="1433" y="650" type="curve" smooth="yes"/>
      <point x="1433" y="952"/>
      <point x="1200" y="1240"/>
      <point x="793" y="1240" type="curve" smooth="yes"/>
      <point x="263" y="1240"/>
      <point x="26" y="857"/>
      <point x="26" y="540" type="curve" smooth="yes"/>
      <point x="26" y="128"/>
      <point x="359" y="-114"/>
    </contour>
    <contour>
      <point x="699" y="356" type="curve" smooth="yes"/>
      <point x="626" y="348"/>
      <point x="569" y="389"/>
      <point x="561" y="488" type="curve" smooth="yes"/>
      <point x="551" y="618"/>
      <point x="608" y="807"/>
      <point x="869" y="807" type="curve"/>
      <point x="869" y="493" type="line"/>
      <point x="844" y="424"/>
      <point x="764" y="363"/>
    </contour>
  </outline>
</glyph>
<glyph name="A" format="1">
  <advance width="1285"/>
  <unicode hex="0041"/>
  <outline>
    <contour>
      <point x="34" y="0" type="line"/>
      <point x="359" y="0" type="line"/>
      <point x="480" y="290" type="line"/>
      <point x="800" y="290" type="line"/>
      <point x="932" y="0" type="line"/>
      <point x="1251" y="0" type="line"/>
      <point x="631" y="1311" type="line"/>
    </contour>
    <contour>
      <point x="533" y="474" type="line"/>
      <point x="634" y="737" type="line"/>
      <point x="745" y="474" type="line"/>
    </contour>
    <contour>
      <point x="639" y="1241" type="move" name="top"/>
    </contour>
    <contour>
      <point x="1153" y="10" type="move" name="ogonek"/>
    </contour>
  </outline>
</glyph>
<glyph name="B" format="1">
  <advance width="1117"/>
  <unicode hex="0042"/>
  <outline>
    <contour>
      <point x="139" y="0" type="line"/>
      <point x="535" y="0" type="line" smooth="yes"/>
      <point x="809" y="0"/>
      <point x="1031" y="120"/>
      <point x="1031" y="380" type="curve" smooth="yes"/>
      <point x="1031" y="564.312"/>
      <point x="929.366" y="640.237"/>
      <point x="813.096" y="700.997" type="curve"/>
      <point x="893.172" y="736.304"/>
      <point x="964" y="803.582"/>
      <point x="964" y="920" type="curve" smooth="yes"/>
      <point x="964" y="1140"/>
      <point x="797.5" y="1241"/>
      <point x="505" y="1241" type="curve" smooth="yes"/>
      <point x="139" y="1241" type="line"/>
    </contour>
    <contour>
      <point x="439" y="194" type="line"/>
      <point x="439" y="597" type="line"/>
      <point x="516" y="597" type="line" smooth="yes"/>
      <point x="656" y="597"/>
      <point x="747" y="508"/>
      <point x="747" y="393" type="curve" smooth="yes"/>
      <point x="747" y="290"/>
      <point x="679" y="194"/>
      <point x="509" y="194" type="curve" smooth="yes"/>
    </contour>
    <contour>
      <point x="441" y="761" type="line"/>
      <point x="441" y="1048" type="line"/>
      <point x="480" y="1048" type="line" smooth="yes"/>
      <point x="650.5" y="1048"/>
      <point x="710" y="1004"/>
      <point x="710" y="901" type="curve" smooth="yes"/>
      <point x="710" y="776"/>
      <point x="554.5" y="761"/>
      <point x="465" y="761" type="curve" smooth="yes"/>
    </contour>
  </outline>
</glyph>
<glyph name="J" format="1">
  <advance width="988"/>
  <unicode hex="004A"/>
  <outline>
    <contour>
      <point x="369.694" y="-30.0339" type="curve" smooth="yes"/>
      <point x="698.595" y="-30.0339"/>
      <point x="857" y="145.775"/>
      <point x="857" y="492" type="curve" smooth="yes"/>
      <point x="857" y="1241" type="line"/>
      <point x="565" y="1241" type="line"/>
      <point x="565" y="505" type="line" smooth="yes"/>
      <point x="565" y="298"/>
      <point x="500" y="202"/>
      <point x="339" y="202" type="curve" smooth="yes"/>
      <point x="205" y="202"/>
      <point x="80" y="288"/>
      <point x="80" y="288" type="curve"/>
      <point x="80" y="40" type="line"/>
      <point x="80" y="40"/>
      <point x="157.902" y="-30.0339"/>
    </contour>
    <contour>
      <point x="494" y="1241" type="move" name="top"/>
    </contour>
  </outline>
</glyph>
<glyph name="K" format="1">
  <advance width="1265"/>
  <unicode hex="004B"/>
  <outline>
    <contour>
      <point x="138" y="0" type="line"/>
      <point x="440" y="0" type="line"/>
      <point x="440" y="569" type="line"/>
      <point x="866" y="0" type="line"/>
      <point x="1231" y="0" type="line"/>
      <point x="744.526" y="634.781" type="line"/>
      <point x="1205" y="1241" type="line"/>
      <point x="851" y="1241" type="line"/>
      <point x="438" y="695" type="line"/>
      <point x="438" y="1242" type="line"/>
      <point x="138" y="1242" type="line"/>
    </contour>
    <contour>
      <point x="633" y="1241" type="move" name="top"/>
    </contour>
    <contour>
      <point x="633" y="0" type="move" name="bottom"/>
    </contour>
  </outline>
</glyph>
<glyph name="S" format="1">
  <advance width="956"/>
  <unicode hex="0053"/>
  <outline>
    <contour>
      <point x="515" y="-33" type="curve" smooth="yes"/>
      <point x="705" y="-33"/>
      <point x="870" y="81"/>
      <point x="870" y="320" type="curve" smooth="yes"/>
      <point x="870" y="449"/>
      <point x="800.171" y="557.176"/>
      <point x="649" y="672" type="curve" smooth="yes"/>
      <point x="466" y="811" type="line" smooth="yes"/>
      <point x="408.504" y="854.672"/>
      <point x="385" y="901"/>
      <point x="385" y="932" type="curve" smooth="yes"/>
      <point x="385" y="973"/>
      <point x="403" y="1026"/>
      <point x="506" y="1026" type="curve" smooth="yes"/>
      <point x="632" y="1026"/>
      <point x="815" y="933"/>
      <point x="815" y="933" type="curve"/>
      <point x="815" y="1187" type="line" smooth="yes"/>
      <point x="815" y="1193.4"/>
      <point x="664" y="1277"/>
      <point x="465" y="1277" type="curve" smooth="yes"/>
      <point x="216" y="1277"/>
      <point x="90" y="1108"/>
      <point x="90" y="925" type="curve" smooth="yes"/>
      <point x="90" y="819"/>
      <point x="148.63" y="695.858"/>
      <point x="258" y="615" type="curve" smooth="yes"/>
      <point x="492" y="442" type="line" smooth="yes"/>
      <point x="581.334" y="376.79"/>
      <point x="583" y="348"/>
      <point x="583" y="316" type="curve" smooth="yes"/>
      <point x="583" y="253.771"/>
      <point x="548.965" y="216.91"/>
      <point x="470.781" y="216.91" type="curve" smooth="yes"/>
      <point x="334.665" y="216.91"/>
      <point x="117.681" y="354.729"/>
      <point x="117" y="355" type="curve" smooth="yes"/>
      <point x="117" y="90" type="line" smooth="yes"/>
      <point x="117" y="89.833"/>
      <point x="265.5" y="-33"/>
    </contour>
    <contour>
      <point x="478" y="1241" type="move" name="top"/>
    </contour>
    <contour>
      <point x="478" y="0" type="move" name="bottom"/>
    </contour>
  </outline>
</glyph>
<glyph name="T" format="1">
  <advance width="1122"/>
  <unicode hex="0054"/>
  <outline>
    <contour>
      <point x="407" y="0" type="line"/>
      <point x="715" y="0" type="line"/>
      <point x="715" y="973" type="line"/>
      <point x="1080" y="973" type="line"/>
      <point x="1080" y="1241" type="line"/>
      <point x="42" y="1241" type="line"/>
      <point x="42" y="973" type="line"/>
      <point x="407" y="973" type="line"/>
    </contour>
    <contour>
      <point x="565" y="1241" type="move" name="top"/>
    </contour>
    <contour>
      <point x="565" y="0" type="move" name="bottom"/>
    </contour>
    <contour>
      <point x="565" y="621" type="move" name="center"/>
    </contour>
  </outline>
</glyph>
<glyph name="U" format="1">
  <advance width="1402"/>
  <unicode hex="0055"/>
  <outline>
    <contour>
      <point x="699" y="-33" type="curve" smooth="yes"/>
      <point x="1016" y="-33"/>
      <point x="1267" y="142"/>
      <point x="1267" y="493" type="curve" smooth="yes"/>
      <point x="1267" y="1241" type="line"/>
      <point x="975" y="1241" type="line"/>
      <point x="975" y="500" type="line" smooth="yes"/>
      <point x="975" y="293"/>
      <point x="860" y="202"/>
      <point x="699" y="202" type="curve" smooth="yes"/>
      <point x="538" y="202"/>
      <point x="423" y="293"/>
      <point x="423" y="500" type="curve" smooth="yes"/>
      <point x="423" y="1241" type="line"/>
      <point x="131" y="1241" type="line"/>
      <point x="131" y="493" type="line" smooth="yes"/>
      <point x="131" y="142"/>
      <point x="382" y="-33"/>
    </contour>
    <contour>
      <point x="710" y="1241" type="move" name="top"/>
    </contour>
    <contour>
      <point x="1271" y="10" type="move" name="ogonek"/>
    </contour>
  </outline>
</glyph>
<glyph name="V" format="1">
  <advance width="1263"/>
  <unicode hex="0056"/>
  <outline>
    <contour>
      <point x="640" y="-58" type="line"/>
      <point x="1237" y="1241" type="line"/>
      <point x="922" y="1241" type="line"/>
      <point x="637" y="556" type="line"/>
      <point x="329" y="1241" type="line"/>
      <point x="20" y="1241" type="line"/>
    </contour>
  </outline>
</glyph>
<glyph name="Y" format="1">
  <advance width="1259"/>
  <unicode hex="0059"/>
  <outline>
    <contour>
      <point x="480.1" y="-3.05176e-05" type="line"/>
      <point x="788.1" y="-3.05176e-05" type="line"/>
      <point x="788.1" y="459.2" type="line"/>
      <point x="1235" y="1241" type="line"/>
      <point x="920" y="1241" type="line"/>
      <point x="635" y="707" type="line"/>
      <point x="327" y="1241" type="line"/>
      <point x="18" y="1241" type="line"/>
      <point x="480.1" y="462.517" type="line"/>
    </contour>
    <contour>
      <point x="630" y="1241" type="move" name="top"/>
    </contour>
  </outline>
</glyph>
<glyph name="Z" format="1">
  <advance width="1059"/>
  <unicode hex="005A"/>
  <outline>
    <contour>
      <point x="65" y="0" type="line"/>
      <point x="967" y="0" type="line"/>
      <point x="967" y="268" type="line"/>
      <point x="526" y="268" type="line"/>
      <point x="994" y="1241" type="line"/>
      <point x="90.3633" y="1241" type="line"/>
      <point x="90.3633" y="973" type="line"/>
      <point x="541.995" y="973" type="line"/>
    </contour>
    <contour>
      <point x="530" y="1241" type="move" name="top"/>
    </contour>
  </outline>
</glyph>
<glyph name="bracketleft" format="1">
  <advance width="1122"/>
  <unicode hex="005B"/>
  <outline>
    <contour>
      <point x="403" y="0" type="line"/>
      <point x="965" y="0" type="line"/>
      <point x="965" y="216" type="line"/>
      <point x="711" y="216" type="line"/>
      <point x="711" y="1025" type="line"/>
      <point x="965" y="1025" type="line"/>
      <point x="965" y="1241" type="line"/>
      <point x="403" y="1241" type="line"/>
    </contour>
  </outline>
</glyph>
<glyph name="b" format="1">
  <advance width="1091"/>
  <unicode hex="0062"/>
  <outline>
    <contour>
      <point x="520" y="-20" type="curve" smooth="yes"/>
      <point x="826" y="-20"/>
      <point x="1012" y="162"/>
      <point x="1012" y="475" type="curve" smooth="yes"/>
      <point x="1012" y="717"/>
      <point x="833" y="904"/>
      <point x="610" y="904" type="curve" smooth="yes"/>
      <point x="542" y="904"/>
      <point x="470" y="886"/>
      <point x="397" y="846" type="curve"/>
      <point x="397" y="1277" type="line"/>
      <point x="122" y="1240" type="line"/>
      <point x="122" y="55" type="line"/>
      <point x="269" y="6"/>
      <point x="405" y="-20"/>
    </contour>
    <contour>
      <point x="477" y="191" type="curve" smooth="yes"/>
      <point x="452" y="191"/>
      <point x="427" y="192"/>
      <point x="397" y="196" type="curve"/>
      <point x="397" y="646" type="line"/>
      <point x="447" y="669"/>
      <point x="494" y="680"/>
      <point x="537" y="680" type="curve" smooth="yes"/>
      <point x="659" y="680"/>
      <point x="742" y="593"/>
      <point x="742" y="453" type="curve" smooth="yes"/>
      <point x="742" y="274"/>
      <point x="643" y="191"/>
    </contour>
  </outline>
</glyph>
<glyph name="e" format="1">
  <advance width="1010"/>
  <unicode hex="0065"/>
  <outline>
    <contour>
      <point x="609" y="-27" type="curve" smooth="yes"/>
      <point x="718" y="-27"/>
      <point x="826" y="3"/>
      <point x="916" y="56" type="curve"/>
      <point x="916" y="285" type="line"/>
      <point x="852" y="238"/>
      <point x="749" y="196"/>
      <point x="633" y="196" type="curve" smooth="yes"/>
      <point x="509" y="196"/>
      <point x="390" y="243"/>
      <point x="358" y="389" type="curve"/>
      <point x="927" y="389" type="line"/>
      <point x="927" y="456" type="line" smooth="yes"/>
      <point x="927" y="703"/>
      <point x="809" y="903"/>
      <point x="526" y="903" type="curve" smooth="yes"/>
      <point x="262" y="903"/>
      <point x="79" y="693"/>
      <point x="79" y="453" type="curve" smooth="yes"/>
      <point x="79" y="131"/>
      <point x="346" y="-27"/>
    </contour>
    <contour>
      <point x="370" y="566" type="line"/>
      <point x="393" y="648"/>
      <point x="467" y="701"/>
      <point x="554" y="701" type="curve" smooth="yes"/>
      <point x="629" y="701"/>
      <point x="688" y="663"/>
      <point x="700" y="566" type="curve"/>
    </contour>
    <contour>
      <point x="505" y="884" type="move" name="top"/>
    </contour>
    <contour>
      <point x="505" y="0" type="move" name="bottom"/>
    </contour>
    <contour>
      <point x="909" y="10" type="move" name="ogonek"/>
    </contour>
  </outline>
</glyph>
<glyph name="h" format="1">
  <advance width="1160"/>
  <unicode hex="0068"/>
  <outline>
    <contour>
      <point x="122" y="0" type="line"/>
      <point x="404" y="0" type="line"/>
      <point x="404" y="580.86" type="line"/>
      <point x="432.001" y="635.579"/>
      <point x="530" y="688"/>
      <point x="625" y="688" type="curve" smooth="yes"/>
      <point x="703" y="688"/>
      <point x="768" y="654.048"/>
      <point x="768" y="558.757" type="curve" smooth="yes"/>
      <point x="768" y="0" type="line"/>
      <point x="1050" y="0" type="line"/>
      <point x="1050" y="580.15" type="line" smooth="yes"/>
      <point x="1050" y="770.745"/>
      <point x="897.943" y="903"/>
      <point x="711" y="903" type="curve" smooth="yes"/>
      <point x="611.866" y="903"/>
      <point x="503" y="874"/>
      <point x="401" y="785" type="curve"/>
      <point x="401" y="1277.44" type="line"/>
      <point x="122" y="1239.74" type="line"/>
    </contour>
    <contour>
      <point x="580" y="884" type="move" name="top"/>
    </contour>
    <contour>
      <point x="580" y="442" type="move" name="center"/>
    </contour>
  </outline>
</glyph>
<glyph name="i" format="1">
  <advance width="549"/>
  <unicode hex="0069"/>
  <outline>
    <contour>
      <point x="275" y="970" type="curve" smooth="yes"/>
      <point x="381" y="970"/>
      <point x="443" y="1052"/>
      <point x="443" y="1135" type="curve" smooth="yes"/>
      <point x="443" y="1215"/>
      <point x="382" y="1300"/>
      <point x="275" y="1300" type="curve" smooth="yes"/>
      <point x="168" y="1300"/>
      <point x="106" y="1216"/>
      <point x="106" y="1135" type="curve" smooth="yes"/>
      <point x="106" y="1051"/>
      <point x="169" y="970"/>
    </contour>
    <contour>
      <point x="138" y="0" type="line"/>
      <point x="411" y="0" type="line"/>
      <point x="411" y="876" type="line"/>
      <point x="138" y="876" type="line"/>
    </contour>
  </outline>
</glyph>
<glyph name="k" format="1">
  <advance width="1072"/>
  <unicode hex="006B"/>
  <outline>
    <contour>
      <point x="122" y="0" type="line"/>
      <point x="397" y="0" type="line"/>
      <point x="397" y="389.461" type="line"/>
      <point x="728" y="0" type="line"/>
      <point x="1080" y="0" type="line"/>
      <point x="667.486" y="469.502" type="line"/>
      <point x="1030.95" y="875" type="line"/>
      <point x="686.598" y="875" type="line"/>
      <point x="397" y="537.729" type="line"/>
      <point x="397" y="1276" type="line"/>
      <point x="122" y="1241" type="line"/>
    </contour>
    <contour>
      <point x="536" y="0" type="move" name="bottom"/>
    </contour>
  </outline>
</glyph>
<glyph name="l" format="1">
  <advance width="709"/>
  <unicode hex="006C"/>
  <outline>
    <contour>
      <point x="418" y="-24" type="curve" smooth="yes"/>
      <point x="554.473" y="-24"/>
      <point x="635" y="15"/>
      <point x="646" y="21" type="curve"/>
      <point x="646" y="246" type="line"/>
      <point x="615" y="231"/>
      <point x="547" y="210"/>
      <point x="490.075" y="210.433" type="curve" smooth="yes"/>
      <point x="438.295" y="210.433"/>
      <point x="397" y="228.9"/>
      <point x="397" y="298.353" type="curve" smooth="yes"/>
      <point x="397" y="1277.47" type="line"/>
      <point x="122" y="1239.72" type="line"/>
      <point x="122" y="270.342" type="line" smooth="yes"/>
      <point x="122" y="75.4561"/>
      <point x="266.509" y="-24"/>
    </contour>
    <contour>
      <point x="355" y="884" type="move" name="top"/>
    </contour>
    <contour>
      <point x="355" y="0" type="move" name="bottom"/>
    </contour>
    <contour>
      <point x="689" y="884" type="move" name="topright"/>
    </contour>
  </outline>
</glyph>
<glyph name="o" format="1">
  <advance width="1146"/>
  <unicode hex="006F"/>
  <outline>
    <contour>
      <point x="573" y="-25" type="curve" smooth="yes"/>
      <point x="298.226" y="-25"/>
      <point x="79" y="161.112"/>
      <point x="79" y="440.958" type="curve" smooth="yes"/>
      <point x="79" y="718.917"/>
      <point x="298.306" y="903"/>
      <point x="573" y="903" type="curve" smooth="yes"/>
      <point x="847.694" y="903"/>
      <point x="1067" y="718.917"/>
      <point x="1067" y="440.958" type="curve" smooth="yes"/>
      <point x="1067" y="161.112"/>
      <point x="847.774" y="-25"/>
    </contour>
    <contour>
      <point x="573" y="201" type="curve" smooth="yes"/>
      <point x="722.139" y="201"/>
      <point x="799" y="317.768"/>
      <point x="799" y="439" type="curve" smooth="yes"/>
      <point x="799" y="558.407"/>
      <point x="724.061" y="677"/>
      <point x="573" y="677" type="curve" smooth="yes"/>
      <point x="421.939" y="677"/>
      <point x="347" y="558.407"/>
      <point x="347" y="439" type="curve" smooth="yes"/>
      <point x="347" y="317.768"/>
      <point x="423.861" y="201"/>
    </contour>
    <contour>
      <point x="573" y="884" type="move" name="top"/>
    </contour>
  </outline>
</glyph>
<glyph name="p" format="1">
  <advance width="1091"/>
  <unicode hex="0070"/>
  <outline>
    <contour>
      <point x="122" y="-364" type="line"/>
      <point x="398" y="-364" type="line"/>
      <point x="398" y="-2" type="line"/>
      <point x="398" y="-2"/>
      <point x="466" y="-12"/>
      <point x="524" y="-12" type="curve" smooth="yes"/>
      <point x="827" y="-12"/>
      <point x="1012" y="173"/>
      <point x="1012" y="451" type="curve" smooth="yes"/>
      <point x="1012" y="705"/>
      <point x="859" y="906"/>
      <point x="613" y="906" type="curve" smooth="yes"/>
      <point x="506" y="906"/>
      <point x="435" y="866"/>
      <point x="398" y="832" type="curve"/>
      <point x="398" y="876" type="line"/>
      <point x="122" y="876" type="line"/>
    </contour>
    <contour>
      <point x="477" y="191" type="curve" smooth="yes"/>
      <point x="452" y="191"/>
      <point x="428" y="192"/>
      <point x="398" y="196" type="curve"/>
      <point x="398" y="646" type="line"/>
      <point x="448" y="669"/>
      <point x="494" y="680"/>
      <point x="537" y="680" type="curve" smooth="yes"/>
      <point x="659" y="680"/>
      <point x="742" y="593"/>
      <point x="742" y="453" type="curve" smooth="yes"/>
      <point x="742" y="274"/>
      <point x="643" y="191"/>
    </contour>
  </outline>
</glyph>
<glyph name="t" format="1">
  <advance width="817"/>
  <unicode hex="0074"/>
  <outline>
    <contour>
      <point x="468.405" y="-26" type="curve" smooth="yes"/>
      <point x="646.043" y="-26"/>
      <point x="741.064" y="52.5166"/>
      <point x="747.405" y="58.8574" type="curve"/>
      <point x="747.405" y="268" type="line"/>
      <point x="711.39" y="252.747"/>
      <point x="607.827" y="206.729"/>
      <point x="529.609" y="206.729" type="curve" smooth="yes"/>
      <point x="476.07" y="206.729"/>
      <point x="434.405" y="228.29"/>
      <point x="434.405" y="296.034" type="curve" smooth="yes"/>
      <point x="434.405" y="660" type="line"/>
      <point x="702.405" y="660" type="line"/>
      <point x="702.405" y="875" type="line"/>
      <point x="434.405" y="875" type="line"/>
      <point x="434.405" y="1136" type="line"/>
      <point x="71.6133" y="762.4" type="line"/>
      <point x="53.4023" y="745.234"/>
      <point x="45" y="726.534"/>
      <point x="45" y="709.867" type="curve" smooth="yes"/>
      <point x="45" y="682.114"/>
      <point x="68.2998" y="660"/>
      <point x="108.405" y="660" type="curve" smooth="yes"/>
      <point x="164.405" y="660" type="line"/>
      <point x="164.405" y="220.805" type="line" smooth="yes"/>
      <point x="164.405" y="60.8105"/>
      <point x="318.391" y="-26"/>
    </contour>
    <contour>
      <point x="409" y="442" type="move" name="center"/>
    </contour>
    <contour>
      <point x="409" y="0" type="move" name="bottom"/>
    </contour>
  </outline>
</glyph>
<glyph name="x" format="1">
  <advance width="1179"/>
  <unicode hex="0078"/>
  <outline>
    <contour>
      <point x="27" y="0" type="line"/>
      <point x="377" y="0" type="line"/>
      <point x="593.68" y="280.601" type="line"/>
      <point x="822" y="0" type="line"/>
      <point x="1152" y="0" type="line"/>
      <point x="760" y="440" type="line"/>
      <point x="1136" y="875" type="line"/>
      <point x="792" y="875" type="line"/>
      <point x="583.324" y="609.361" type="line"/>
      <point x="367" y="875" type="line"/>
      <point x="36" y="875" type="line"/>
      <point x="417" y="450" type="line"/>
    </contour>
  </outline>
</glyph>
<glyph name="z" format="1">
  <advance width="916"/>
  <unicode hex="007A"/>
  <outline>
    <contour>
      <point x="58" y="0" type="line"/>
      <point x="829" y="0" type="line"/>
      <point x="829" y="215" type="line"/>
      <point x="485" y="215" type="line"/>
      <point x="860" y="876" type="line"/>
      <point x="87" y="876" type="line"/>
      <point x="87" y="669" type="line"/>
      <point x="465" y="669" type="line"/>
    </contour>
    <contour>
      <point x="458" y="884" type="move" name="top"/>
    </contour>
  </outline>
</glyph>
<glyph name="asciitilde" format="1">
  <advance width="1006"/>
  <unicode hex="007E"/>
  <outline>
    <contour>
      <point x="731" y="597" type="curve" smooth="yes"/>
      <point x="907" y="597"/>
      <point x="936" y="693"/>
      <point x="940" y="875" type="curve"/>
      <point x="812" y="875" type="line"/>
      <point x="799" y="801"/>
      <point x="797" y="739"/>
      <point x="727" y="739" type="curve" smooth="yes"/>
      <point x="623" y="739"/>
      <point x="454" y="889"/>
      <point x="298" y="889" type="curve" smooth="yes"/>
      <point x="122" y="889"/>
      <point x="73" y="793"/>
      <point x="69" y="611" type="curve"/>
      <point x="197" y="611" type="line"/>
      <point x="210" y="691"/>
      <point x="218" y="746"/>
      <point x="300" y="746" type="curve" smooth="yes"/>
      <point x="421" y="746"/>
      <point x="577" y="597"/>
    </contour>
  </outline>
</glyph>
<glyph name="sterling" format="1">
  <advance width="1205"/>
  <unicode hex="00A3"/>
  <outline>
    <contour>
      <point x="847" y="-34" type="curve" smooth="yes"/>
      <point x="1047" y="-34"/>
      <point x="1143" y="97"/>
      <point x="1143" y="302" type="curve"/>
      <point x="910" y="302" type="line"/>
      <point x="910" y="264"/>
      <point x="905" y="195"/>
      <point x="804" y="195" type="curve" smooth="yes"/>
      <point x="747" y="195"/>
      <point x="688" y="212"/>
      <point x="637" y="241" type="curve"/>
      <point x="679" y="309"/>
      <point x="707" y="374"/>
      <point x="707" y="433" type="curve" smooth="yes"/>
      <point x="707" y="466"/>
      <point x="703" y="497"/>
      <point x="695" y="527" type="curve"/>
      <point x="922" y="527" type="line"/>
      <point x="922" y="717" type="line"/>
      <point x="621" y="717" type="line"/>
      <point x="593" y="778"/>
      <point x="568" y="835"/>
      <point x="568" y="889" type="curve" smooth="yes"/>
      <point x="568" y="974"/>
      <point x="641" y="1030"/>
      <point x="734" y="1030" type="curve" smooth="yes"/>
      <point x="847" y="1030"/>
      <point x="900" y="958"/>
      <point x="948" y="915" type="curve"/>
      <point x="1079" y="1118" type="line"/>
      <point x="993" y="1216"/>
      <point x="837" y="1274"/>
      <point x="693" y="1274" type="curve" smooth="yes"/>
      <point x="453" y="1274"/>
      <point x="247" y="1168"/>
      <point x="247" y="924" type="curve" smooth="yes"/>
      <point x="247" y="868"/>
      <point x="277" y="794"/>
      <point x="310" y="717" type="curve"/>
      <point x="206" y="717" type="line"/>
      <point x="206" y="527" type="line"/>
      <point x="381" y="527" type="line"/>
      <point x="390" y="493"/>
      <point x="395" y="458"/>
      <point x="395" y="425" type="curve" smooth="yes"/>
      <point x="395" y="307"/>
      <point x="319" y="169"/>
      <point x="192" y="0" type="curve"/>
      <point x="464" y="0" type="line"/>
      <point x="485" y="28"/>
      <point x="505" y="55"/>
      <point x="526" y="83" type="curve"/>
      <point x="627" y="14"/>
      <point x="752" y="-34"/>
    </contour>
  </outline>
</glyph>
<glyph name="yen" format="1">
  <advance width="1259"/>
  <unicode hex="00A5"/>
  <outline>
    <contour>
      <point x="484" y="0" type="line"/>
      <point x="792" y="0" type="line"/>
      <point x="792" y="354" type="line"/>
      <point x="1126" y="354" type="line"/>
      <point x="1126" y="522" type="line"/>
      <point x="828" y="522" type="line"/>
      <point x="901" y="649" type="line"/>
      <point x="1136" y="649" type="line"/>
      <point x="1136" y="817" type="line"/>
      <point x="997" y="817" type="line"/>
      <point x="1239" y="1241" type="line"/>
      <point x="924" y="1241" type="line"/>
      <point x="639" y="707" type="line"/>
      <point x="331" y="1241" type="line"/>
      <point x="22" y="1241" type="line"/>
      <point x="274" y="817" type="line"/>
      <point x="129" y="817" type="line"/>
      <point x="129" y="649" type="line"/>
      <point x="373" y="649" type="line"/>
      <point x="449" y="522" type="line"/>
      <point x="139" y="522" type="line"/>
      <point x="139" y="354" type="line"/>
      <point x="484" y="354" type="line"/>
    </contour>
  </outline>
</glyph>
<glyph name="copyright" format="1">
  <advance width="1744"/>
  <unicode hex="00A9"/>
  <outline>
    <contour>
      <point x="872" y="26" type="curve" smooth="yes"/>
      <point x="569" y="26"/>
      <point x="268" y="224"/>
      <point x="268" y="621" type="curve" smooth="yes"/>
      <point x="268" y="1019"/>
      <point x="569" y="1217"/>
      <point x="871" y="1217" type="curve" smooth="yes"/>
      <point x="1174" y="1217"/>
      <point x="1476" y="1019"/>
      <point x="1476" y="624" type="curve" smooth="yes"/>
      <point x="1476" y="224"/>
      <point x="1174" y="26"/>
    </contour>
    <contour>
      <point x="872" y="-98" type="curve" smooth="yes"/>
      <point x="1237" y="-98"/>
      <point x="1603" y="141"/>
      <point x="1603" y="624" type="curve" smooth="yes"/>
      <point x="1603" y="1101"/>
      <point x="1237" y="1341"/>
      <point x="871" y="1341" type="curve" smooth="yes"/>
      <point x="506" y="1341"/>
      <point x="141" y="1102"/>
      <point x="141" y="621" type="curve" smooth="yes"/>
      <point x="141" y="141"/>
      <point x="506" y="-98"/>
    </contour>
    <contour>
      <point x="885" y="153" type="curve" smooth="yes"/>
      <point x="1049" y="153"/>
      <point x="1189" y="226"/>
      <point x="1189" y="226" type="curve"/>
      <point x="1189" y="432" type="line"/>
      <point x="1111" y="375"/>
      <point x="1007" y="341"/>
      <point x="908" y="341" type="curve" smooth="yes"/>
      <point x="758" y="341"/>
      <point x="623" y="421"/>
      <point x="623" y="625" type="curve" smooth="yes"/>
      <point x="623" y="829"/>
      <point x="758" y="907"/>
      <point x="908" y="907" type="curve" smooth="yes"/>
      <point x="1007" y="907"/>
      <point x="1111" y="873"/>
      <point x="1189" y="816" type="curve"/>
      <point x="1189" y="1022" type="line"/>
      <point x="1189" y="1022"/>
      <point x="1049" y="1095"/>
      <point x="885" y="1095" type="curve" smooth="yes"/>
      <point x="606" y="1095"/>
      <point x="399" y="916"/>
      <point x="399" y="625" type="curve" smooth="yes"/>
      <point x="399" y="335"/>
      <point x="606" y="153"/>
    </contour>
  </outline>
</glyph>
<glyph name="guillemotleft" format="1">
  <advance width="962"/>
  <unicode hex="00AB"/>
  <outline>
    <contour>
      <point x="852" y="156" type="curve" smooth="yes"/>
      <point x="876" y="156"/>
      <point x="892" y="173"/>
      <point x="892" y="193" type="curve" smooth="yes"/>
      <point x="892" y="206"/>
      <point x="886" y="220"/>
      <point x="872" y="233" type="curve"/>
      <point x="663" y="526" type="line"/>
      <point x="872" y="819" type="line"/>
      <point x="886" y="832"/>
      <point x="892" y="846"/>
      <point x="892" y="859" type="curve" smooth="yes"/>
      <point x="892" y="879"/>
      <point x="876" y="895"/>
      <point x="852" y="895" type="curve" smooth="yes"/>
      <point x="843" y="895"/>
      <point x="832" y="893"/>
      <point x="821" y="888" type="curve"/>
      <point x="510" y="651" type="line"/>
      <point x="458" y="619"/>
      <point x="430" y="572"/>
      <point x="430" y="526" type="curve" smooth="yes"/>
      <point x="430" y="480"/>
      <point x="457" y="434"/>
      <point x="510" y="401" type="curve"/>
      <point x="821" y="164" type="line"/>
      <point x="832" y="159"/>
      <point x="843" y="156"/>
    </contour>
    <contour>
      <point x="479" y="156" type="curve" smooth="yes"/>
      <point x="503" y="156"/>
      <point x="519" y="173"/>
      <point x="519" y="193" type="curve" smooth="yes"/>
      <point x="519" y="206"/>
      <point x="513" y="220"/>
      <point x="499" y="233" type="curve"/>
      <point x="290" y="526" type="line"/>
      <point x="499" y="819" type="line"/>
      <point x="513" y="832"/>
      <point x="519" y="846"/>
      <point x="519" y="859" type="curve" smooth="yes"/>
      <point x="519" y="879"/>
      <point x="503" y="895"/>
      <point x="479" y="895" type="curve" smooth="yes"/>
      <point x="470" y="895"/>
      <point x="459" y="893"/>
      <point x="448" y="888" type="curve"/>
      <point x="137" y="651" type="line"/>
      <point x="85" y="619"/>
      <point x="57" y="572"/>
      <point x="57" y="526" type="curve" smooth="yes"/>
      <point x="57" y="480"/>
      <point x="84" y="434"/>
      <point x="137" y="401" type="curve"/>
      <point x="448" y="164" type="line"/>
      <point x="459" y="159"/>
      <point x="470" y="156"/>
    </contour>
  </outline>
</glyph>
<glyph name="logicalnot" format="1">
  <advance width="1009"/>
  <unicode hex="00AC"/>
  <outline>
    <contour>
      <point x="685" y="287" type="line"/>
      <point x="880" y="287" type="line"/>
      <point x="880" y="824" type="line"/>
      <point x="99" y="824" type="line"/>
      <point x="99" y="629" type="line"/>
      <point x="685" y="629" type="line"/>
    </contour>
  </outline>
</glyph>
<glyph name="plusminus" format="1">
  <advance width="1259"/>
  <unicode hex="00B1"/>
  <outline>
    <contour>
      <point x="523" y="345" type="line"/>
      <point x="691" y="345" type="line"/>
      <point x="691" y="649" type="line"/>
      <point x="994" y="649" type="line"/>
      <point x="994" y="817" type="line"/>
      <point x="690" y="817" type="line"/>
      <point x="690" y="1121" type="line"/>
      <point x="523" y="1121" type="line"/>
      <point x="523" y="817" type="line"/>
      <point x="219" y="817" type="line"/>
      <point x="219" y="649" type="line"/>
      <point x="523" y="649" type="line"/>
    </contour>
    <contour>
      <point x="219" y="-1" type="line"/>
      <point x="994" y="-1" type="line"/>
      <point x="994" y="167" type="line"/>
      <point x="219" y="167" type="line"/>
    </contour>
  </outline>
</glyph>
<glyph name="paragraph" format="1">
  <advance width="1091"/>
  <unicode hex="00B6"/>
  <outline>
    <contour>
      <point x="551" y="1" type="line"/>
      <point x="703" y="1" type="line"/>
      <point x="703" y="1087" type="line"/>
      <point x="819" y="1087" type="line"/>
      <point x="817" y="1" type="line"/>
      <point x="969" y="1" type="line"/>
      <point x="969" y="1241" type="line"/>
      <point x="520" y="1241" type="line" smooth="yes"/>
      <point x="271" y="1241"/>
      <point x="79" y="1216"/>
      <point x="79" y="903" type="curve" smooth="yes"/>
      <point x="79" y="645"/>
      <point x="288" y="572"/>
      <point x="511" y="572" type="curve" smooth="yes"/>
      <point x="579" y="572"/>
      <point x="551" y="572"/>
      <point x="551" y="572" type="curve"/>
    </contour>
  </outline>
</glyph>
<glyph name="cedilla" format="1">
  <advance width="490"/>
  <unicode hex="00B8"/>
  <outline>
    <contour>
      <point x="363" y="-357" type="curve"/>
      <point x="377" y="-285" type="line"/>
      <point x="308" y="-274"/>
      <point x="245" y="-225"/>
      <point x="245" y="-182" type="curve" smooth="yes"/>
      <point x="245" y="-155"/>
      <point x="272" y="-130"/>
      <point x="342" y="-121" type="curve"/>
      <point x="342" y="0" type="line"/>
      <point x="253" y="0" type="line"/>
      <point x="253" y="-71" type="line"/>
      <point x="149" y="-101"/>
      <point x="117" y="-151"/>
      <point x="117" y="-202" type="curve" smooth="yes"/>
      <point x="117" y="-279"/>
      <point x="233" y="-357"/>
    </contour>
    <contour>
      <point x="247" y="0" type="move" name="_bottom"/>
    </contour>
  </outline>
</glyph>
<glyph name="germandbls" format="1">
  <advance width="1096"/>
  <unicode hex="00DF"/>
  <outline>
    <contour>
      <point x="715" y="-33" type="curve" smooth="yes"/>
      <point x="905" y="-33"/>
      <point x="1051" y="60"/>
      <point x="1051" y="299" type="curve" smooth="yes"/>
      <point x="1051" y="428"/>
      <point x="1017" y="529"/>
      <point x="776" y="680" type="curve"/>
      <point x="900" y="741"/>
      <point x="943" y="823"/>
      <point x="943" y="920" type="curve" smooth="yes"/>
      <point x="943" y="1100"/>
      <point x="800" y="1241"/>
      <point x="507" y="1241" type="curve" smooth="yes"/>
      <point x="269" y="1241"/>
      <point x="110" y="1074"/>
      <point x="110" y="889" type="curve" smooth="yes"/>
      <point x="110" y="0" type="line"/>
      <point x="410" y="0" type="line"/>
      <point x="410" y="888" type="line" smooth="yes"/>
      <point x="410" y="963"/>
      <point x="459" y="1030"/>
      <point x="542" y="1030" type="curve" smooth="yes"/>
      <point x="630" y="1030"/>
      <point x="689" y="988"/>
      <point x="689" y="901" type="curve" smooth="yes"/>
      <point x="689" y="783"/>
      <point x="591" y="763"/>
      <point x="500" y="761" type="curve"/>
      <point x="500" y="557" type="line"/>
      <point x="682" y="445" type="line"/>
      <point x="775" y="386"/>
      <point x="776" y="345"/>
      <point x="776" y="313" type="curve" smooth="yes"/>
      <point x="776" y="251"/>
      <point x="738" y="215"/>
      <point x="660" y="215" type="curve" smooth="yes"/>
      <point x="575" y="215"/>
      <point x="468" y="265"/>
      <point x="467" y="265" type="curve"/>
      <point x="467" y="20" type="line"/>
      <point x="467" y="20"/>
      <point x="541" y="-33"/>
    </contour>
  </outline>
</glyph>
<glyph name="breve" format="1">
  <advance width="803"/>
  <unicode hex="02D8"/>
  <outline>
    <contour>
      <point x="402" y="120" type="curve" smooth="yes"/>
      <point x="164" y="120"/>
      <point x="142" y="338"/>
      <point x="142" y="338" type="curve"/>
      <point x="260" y="366" type="line"/>
      <point x="260" y="366"/>
      <point x="284" y="247"/>
      <point x="402" y="247" type="curve" smooth="yes"/>
      <point x="520" y="247"/>
      <point x="544" y="366"/>
      <point x="544" y="366" type="curve"/>
      <point x="662" y="338" type="line"/>
      <point x="662" y="338"/>
      <point x="640" y="120"/>
    </contour>
    <contour>
      <point x="402" y="884" type="move" name="_top"/>
    </contour>
  </outline>
</glyph>
<glyph name="ogonek" format="1">
  <advance width="451"/>
  <unicode hex="02DB"/>
  <outline>
    <contour>
      <point x="264" y="-416" type="curve"/>
      <point x="333" y="-358" type="line"/>
      <point x="271.005" y="-305.542"/>
      <point x="245.222" y="-251.892"/>
      <point x="245.222" y="-196.909" type="curve" smooth="yes"/>
      <point x="245.222" y="-133.138"/>
      <point x="279.906" y="-67.5737"/>
      <point x="333" y="0" type="curve"/>
      <point x="274" y="0" type="line"/>
      <point x="172.402" y="-85.7526"/>
      <point x="108.081" y="-174.367"/>
      <point x="108.081" y="-251.744" type="curve" smooth="yes"/>
      <point x="108.081" y="-317.493"/>
      <point x="154.524" y="-375.129"/>
    </contour>
    <contour>
      <point x="333" y="10" type="move" name="_ogonek"/>
    </contour>
  </outline>
</glyph>
<glyph name="uni0311" format="1">
  <advance width="803"/>
  <unicode hex="0311"/>
  <outline>
    <contour>
      <point x="260" y="120" type="curve"/>
      <point x="142" y="148" type="line"/>
      <point x="142" y="148"/>
      <point x="164" y="366"/>
      <point x="402" y="366" type="curve" smooth="yes"/>
      <point x="640" y="366"/>
      <point x="662" y="148"/>
      <point x="662" y="148" type="curve"/>
      <point x="544" y="120" type="line"/>
      <point x="544" y="120"/>
      <point x="520" y="239"/>
      <point x="402" y="239" type="curve" smooth="yes"/>
      <point x="284" y="239"/>
      <point x="260" y="120"/>
    </contour>
  </outline>
</glyph>
<glyph name="uni0326" format="1">
  <advance width="523"/>
  <unicode hex="0326"/>
  <outline>
    <contour>
      <point x="159.033" y="-554.199" type="curve" smooth="yes"/>
      <point x="202.722" y="-554.199"/>
      <point x="251.303" y="-523.771"/>
      <point x="280" y="-447" type="curve" smooth="yes"/>
      <point x="408" y="-104" type="line" smooth="yes"/>
      <point x="410.733" y="-96.6764"/>
      <point x="411.966" y="-89.775"/>
      <point x="411.966" y="-83.4336" type="curve" smooth="yes"/>
      <point x="411.966" y="-59.0531"/>
      <point x="393.743" y="-42.9494"/>
      <point x="372.489" y="-42.9494" type="curve" smooth="yes"/>
      <point x="358.532" y="-42.9494"/>
      <point x="343.268" y="-49.8941"/>
      <point x="331" y="-66" type="curve" smooth="yes"/>
      <point x="104" y="-364" type="line"/>
      <point x="76.6387" y="-397.509"/>
      <point x="65.3932" y="-430.019"/>
      <point x="65.3932" y="-458.404" type="curve" smooth="yes"/>
      <point x="65.3932" y="-514.303"/>
      <point x="109.006" y="-554.199"/>
    </contour>
    <contour>
      <point x="238.68" y="0" type="move" name="_bottom"/>
    </contour>
  </outline>
</glyph>
<glyph name="endash" format="1">
  <advance width="1024"/>
  <unicode hex="2013"/>
  <outline>
    <contour>
      <point x="188" y="441" type="line"/>
      <point x="188" y="689" type="line"/>
      <point x="890" y="689" type="line"/>
      <point x="890" y="441" type="line"/>
    </contour>
  </outline>
</glyph>
<glyph name="dagger" format="1">
  <advance width="1068"/>
  <unicode hex="2020"/>
  <outline>
    <contour>
      <point x="450" y="0" type="line"/>
      <point x="618" y="0" type="line"/>
      <point x="618" y="770" type="line"/>
      <point x="921" y="770" type="line"/>
      <point x="921" y="938" type="line"/>
      <point x="617" y="938" type="line"/>
      <point x="617" y="1242" type="line"/>
      <point x="450" y="1242" type="line"/>
      <point x="450" y="938" type="line"/>
      <point x="146" y="938" type="line"/>
      <point x="146" y="770" type="line"/>
      <point x="450" y="770" type="line"/>
    </contour>
  </outline>
</glyph>
<glyph name="Euro" format="1">
  <advance width="1332"/>
  <unicode hex="20AC"/>
  <outline>
    <contour>
      <point x="839" y="-33" type="curve" smooth="yes"/>
      <point x="1067" y="-33"/>
      <point x="1260" y="68"/>
      <point x="1260" y="68" type="curve"/>
      <point x="1260" y="355" type="line"/>
      <point x="1151" y="276"/>
      <point x="1007" y="228"/>
      <point x="870" y="228" type="curve" smooth="yes"/>
      <point x="724.868" y="228"/>
      <point x="590.346" y="281.524"/>
      <point x="521.681" y="409" type="curve"/>
      <point x="865" y="409" type="line"/>
      <point x="865" y="557" type="line"/>
      <point x="477.546" y="557" type="line"/>
      <point x="475.211" y="577.574"/>
      <point x="474" y="599.23"/>
      <point x="474" y="622" type="curve" smooth="yes"/>
      <point x="474" y="632.926"/>
      <point x="474.276" y="643.591"/>
      <point x="474.821" y="654" type="curve"/>
      <point x="865" y="654" type="line"/>
      <point x="865" y="802" type="line"/>
      <point x="506.045" y="802" type="line"/>
      <point x="568.195" y="952.964"/>
      <point x="712.881" y="1014"/>
      <point x="870" y="1014" type="curve" smooth="yes"/>
      <point x="1007" y="1014"/>
      <point x="1151" y="966"/>
      <point x="1260" y="887" type="curve"/>
      <point x="1260" y="1174" type="line"/>
      <point x="1260" y="1174"/>
      <point x="1067" y="1275"/>
      <point x="839" y="1275" type="curve" smooth="yes"/>
      <point x="512.481" y="1275"/>
      <point x="257.49" y="1098.66"/>
      <point x="184.878" y="802" type="curve"/>
      <point x="70" y="802" type="line"/>
      <point x="70" y="654" type="line"/>
      <point x="164.609" y="654" type="line"/>
      <point x="164.204" y="643.445"/>
      <point x="164" y="632.777"/>
      <point x="164" y="622" type="curve" smooth="yes"/>
      <point x="164" y="599.873"/>
      <point x="164.865" y="578.2"/>
      <point x="166.564" y="557" type="curve"/>
      <point x="70" y="557" type="line"/>
      <point x="70" y="409" type="line"/>
      <point x="193.907" y="409" type="line"/>
      <point x="276.906" y="132.203"/>
      <point x="524.847" y="-33"/>
    </contour>
  </outline>
</glyph>
